<?xml version="1.0" encoding="utf-8"?>
<!-- Generator: Adobe Illustrator 24.0.0, SVG Export Plug-In . SVG Version: 6.00 Build 0)  -->
<!DOCTYPE svg PUBLIC "-//W3C//DTD SVG 1.0//EN" "http://www.w3.org/TR/2001/REC-SVG-20010904/DTD/svg10.dtd" [
	<!ENTITY ns_extend "http://ns.adobe.com/Extensibility/1.0/">
	<!ENTITY ns_ai "http://ns.adobe.com/AdobeIllustrator/10.0/">
	<!ENTITY ns_graphs "http://ns.adobe.com/Graphs/1.0/">
	<!ENTITY ns_vars "http://ns.adobe.com/Variables/1.0/">
	<!ENTITY ns_imrep "http://ns.adobe.com/ImageReplacement/1.0/">
	<!ENTITY ns_sfw "http://ns.adobe.com/SaveForWeb/1.0/">
	<!ENTITY ns_custom "http://ns.adobe.com/GenericCustomNamespace/1.0/">
	<!ENTITY ns_adobe_xpath "http://ns.adobe.com/XPath/1.0/">
]>
<svg version="1.0" id="Слой_1" xmlns:x="&ns_extend;" xmlns:i="&ns_ai;" xmlns:graph="&ns_graphs;"
	 xmlns="http://www.w3.org/2000/svg" xmlns:xlink="http://www.w3.org/1999/xlink" x="0px" y="0px" viewBox="0 0 21.5 19.63"
	 style="enable-background:new 0 0 21.5 19.63;" xml:space="preserve">
<style type="text/css">
	.st0{fill:#FE7171;}
</style>
<metadata>
	<sfw  xmlns="&ns_sfw;">
		<slices></slices>
		<sliceSourceBounds  bottomLeftOrigin="true" height="18.76" width="20.02" x="2494.19" y="2474.74"></sliceSourceBounds>
	</sfw>
</metadata>
<path class="st0" d="M15.66,1.56c0.09,0.05,0.55,0.31,0.54,0.67c0,0.13-0.07,0.25-0.22,0.49c-0.16,0.26-0.32,0.46-0.37,0.51
	c-0.43,0.83-0.58-0.33-3.38-0.63c-1.63-0.12-2.44,0-3.58,0.29C7.6,3.17,5.72,3.65,4.31,5.27c-2.04,2.35-1.61,5.43-1.59,5.7
	c0.32,4.17,4.44,7.48,8.93,7c2.8-0.3,5.54-1.67,6.87-4.16c1.1-2.05,0.89-4.25,0.7-5.04c-0.16-0.71-0.58-1.46-0.65-1.58
	c-0.28-0.5-0.44-0.77-0.67-0.8c-0.49-0.07-0.99,0.92-1.39,1.68c0,0-1.75,2.68-3.85,6.09c-0.55,0.9-1.11,1.37-1.7,1.39
	c-0.55,0.02-1.01-0.47-1.75-1.2c-0.29-0.29-0.46-0.49-1.1-1.29c-1.5-1.87-1.85-2.37-1.68-2.75c0.07-0.16,0.3-0.44,0.61-0.65
	c0.15-0.1,0.23-0.16,0.31-0.17c0.53-0.11,1.1,1.09,2.36,2.56c0.74,0.87,0.99,0.98,1.22,0.98c0.6-0.01,1.02-0.78,1.35-1.38
	c0,0,2.01-3.46,3.83-6.1c1.58-2.3,2.31-2.21,3.72,0.28c2.5,4.41,1.08,9.46-3.27,12.11c-4.51,2.74-11.96,1.37-14.58-3.64
	c-1.97-3.77-0.3-7.87,0.03-8.64c0.3-0.61,0.83-1.53,1.75-2.42c0.32-0.31,1.37-1.26,3.04-1.88c1.29-0.47,2.96-0.79,3.33-0.79
	S13.74,0.47,15.66,1.56z"/>
</svg>
