<?xml version="1.0" standalone="no"?>
<!DOCTYPE svg PUBLIC "-//W3C//DTD SVG 20010904//EN"
 "http://www.w3.org/TR/2001/REC-SVG-20010904/DTD/svg10.dtd">
<svg version="1.0" xmlns="http://www.w3.org/2000/svg"
 width="392.000000pt" height="109.000000pt" viewBox="0 0 392.000000 109.000000"
 preserveAspectRatio="xMidYMid meet">

<g transform="translate(0.000000,109.000000) scale(0.100000,-0.100000)"
fill="#000000" stroke="none">
<path d="M120 1070 c0 -17 -7 -20 -40 -20 l-40 0 0 -45 c0 -38 -3 -45 -20 -45
-20 0 -20 -7 -20 -415 0 -408 0 -415 20 -415 17 0 20 -7 20 -45 0 -38 3 -45
20 -45 13 0 20 -7 20 -20 0 -20 7 -20 1875 -20 1868 0 1875 0 1875 20 0 13 7
20 20 20 15 0 20 7 20 25 0 20 5 25 25 25 l25 0 0 460 0 460 -25 0 c-18 0 -25
5 -25 20 0 17 -7 20 -40 20 -33 0 -40 3 -40 20 0 20 -7 20 -1835 20 -1828 0
-1835 0 -1835 -20z m710 -210 c0 -53 -2 -60 -20 -60 -13 0 -20 -7 -20 -20 0
-18 -7 -20 -60 -20 -53 0 -60 2 -60 20 0 13 7 20 20 20 13 0 20 7 20 20 0 13
7 20 20 20 13 0 20 7 20 20 0 13 7 20 20 20 13 0 20 7 20 20 0 13 7 20 20 20
18 0 20 -7 20 -60z m540 0 c0 -15 7 -20 25 -20 23 0 25 -4 25 -40 l0 -40 -45
0 c-41 0 -45 -2 -45 -25 0 -18 -5 -25 -20 -25 -17 0 -20 7 -20 45 0 38 3 45
20 45 17 0 20 7 20 40 0 33 3 40 20 40 13 0 20 -7 20 -20z m550 -65 c0 -84 0
-85 -25 -85 -25 0 -25 1 -25 85 0 84 0 85 25 85 25 0 25 -1 25 -85z m250 65
c0 -17 7 -20 40 -20 l40 0 0 -65 c0 -58 -2 -65 -20 -65 -17 0 -20 7 -20 45 0
38 -3 45 -20 45 -17 0 -20 -7 -20 -45 0 -41 -2 -45 -25 -45 -25 0 -25 1 -25
85 0 84 0 85 25 85 18 0 25 -5 25 -20z m160 -65 c0 -78 -2 -85 -20 -85 -18 0
-20 7 -20 85 0 78 2 85 20 85 18 0 20 -7 20 -85z m880 65 c0 -17 7 -20 40 -20
l40 0 0 -65 c0 -58 -2 -65 -20 -65 -17 0 -20 7 -20 45 0 38 -3 45 -20 45 -17
0 -20 -7 -20 -45 0 -38 -3 -45 -20 -45 -18 0 -20 7 -20 85 0 78 2 85 20 85 13
0 20 -7 20 -20z m-1710 -40 c0 -13 7 -20 20 -20 13 0 20 7 20 20 0 13 7 20 20
20 18 0 20 -7 20 -65 l0 -65 -40 0 -40 0 0 45 c0 38 -3 45 -20 45 -13 0 -20 7
-20 20 0 13 7 20 20 20 13 0 20 -7 20 -20z m210 0 c0 -13 7 -20 20 -20 17 0
20 -7 20 -45 0 -38 -3 -45 -20 -45 -15 0 -20 7 -20 25 0 18 -5 25 -20 25 -15
0 -20 -7 -20 -25 0 -20 -5 -25 -25 -25 -20 0 -25 5 -25 25 0 20 5 25 25 25 23
0 25 4 25 40 0 33 3 40 20 40 13 0 20 -7 20 -20z m120 -45 c0 -58 -2 -65 -20
-65 -18 0 -20 7 -20 65 0 58 2 65 20 65 18 0 20 -7 20 -65z m210 45 c0 -13 7
-20 20 -20 17 0 20 -7 20 -45 0 -38 -3 -45 -20 -45 -15 0 -20 7 -20 25 0 18
-5 25 -20 25 -15 0 -20 -7 -20 -25 0 -18 -5 -25 -20 -25 -15 0 -20 7 -20 25 0
18 5 25 20 25 17 0 20 7 20 40 0 33 3 40 20 40 13 0 20 -7 20 -20z m460 -20
l0 -40 -40 0 c-36 0 -40 -2 -40 -25 0 -20 -5 -25 -25 -25 -23 0 -25 4 -25 45
0 41 2 45 25 45 18 0 25 5 25 20 0 17 7 20 40 20 l40 0 0 -40z m250 -25 c0
-58 -2 -65 -20 -65 -17 0 -20 7 -20 45 0 38 -3 45 -20 45 -17 0 -20 -7 -20
-45 0 -41 -2 -45 -25 -45 -24 0 -25 2 -25 65 l0 65 65 0 65 0 0 -65z m170 0
c0 -63 -1 -65 -25 -65 -23 0 -25 4 -25 45 0 38 -3 45 -20 45 -17 0 -20 -7 -20
-45 0 -38 -3 -45 -20 -45 -18 0 -20 7 -20 65 l0 65 65 0 65 0 0 -65z m200 45
c0 -17 -7 -20 -40 -20 -33 0 -40 3 -40 20 0 17 7 20 40 20 33 0 40 -3 40 -20z
m340 -20 l0 -40 -45 0 c-41 0 -45 -2 -45 -25 0 -18 -5 -25 -20 -25 -18 0 -20
7 -20 65 l0 65 65 0 65 0 0 -40z m-340 -65 c0 -18 -5 -25 -20 -25 -15 0 -20 7
-20 25 0 18 5 25 20 25 15 0 20 -7 20 -25z m-2160 -65 c0 -33 -3 -40 -20 -40
-19 0 -20 -7 -20 -105 0 -98 1 -105 20 -105 13 0 20 -7 20 -20 0 -13 7 -20 20
-20 17 0 20 -7 20 -45 0 -38 -3 -45 -20 -45 -13 0 -20 -7 -20 -20 0 -13 -7
-20 -20 -20 -13 0 -20 -7 -20 -20 0 -15 -7 -20 -25 -20 -18 0 -25 -5 -25 -20
0 -19 -7 -20 -185 -20 -178 0 -185 1 -185 20 0 13 -7 20 -20 20 -17 0 -20 7
-20 40 0 33 -3 40 -20 40 -17 0 -20 7 -20 45 0 41 -2 45 -25 45 l-25 0 0 105
0 105 25 0 c23 0 25 4 25 40 0 33 3 40 20 40 13 0 20 7 20 20 0 19 7 20 250
20 l250 0 0 -40z m500 -145 c0 -18 5 -25 20 -25 18 0 20 -7 20 -60 0 -53 2
-60 20 -60 18 0 20 -7 20 -65 0 -58 2 -65 20 -65 17 0 20 -7 20 -40 l0 -40
-40 0 -40 0 0 40 c0 33 -3 40 -20 40 -13 0 -20 7 -20 20 0 17 -7 20 -45 20
-38 0 -45 -3 -45 -20 0 -13 -7 -20 -20 -20 -17 0 -20 -7 -20 -40 l0 -40 -40 0
c-33 0 -40 3 -40 20 0 13 7 20 20 20 18 0 20 7 20 65 0 58 2 65 20 65 18 0 20
7 20 60 0 53 2 60 20 60 17 0 20 7 20 45 l0 45 45 0 c41 0 45 -2 45 -25z
m1120 0 c0 -24 -3 -25 -60 -25 l-60 0 0 -40 c0 -33 3 -40 20 -40 13 0 20 -7
20 -20 0 -17 7 -20 40 -20 l40 0 0 -45 c0 -38 3 -45 20 -45 13 0 20 -7 20 -20
0 -13 -7 -20 -20 -20 -17 0 -20 -7 -20 -40 l0 -40 -105 0 -105 0 0 40 c0 36 3
40 25 40 18 0 25 -5 25 -20 0 -18 7 -20 60 -20 l60 0 0 40 c0 33 -3 40 -20 40
-15 0 -20 7 -20 25 0 18 -5 25 -20 25 -13 0 -20 7 -20 20 0 17 -7 20 -45 20
l-45 0 0 60 c0 57 1 60 25 60 20 0 25 5 25 25 0 25 1 25 80 25 79 0 80 0 80
-25z m170 -45 c0 -13 7 -20 20 -20 17 0 20 -7 20 -40 0 -33 -3 -40 -20 -40
-18 0 -20 -7 -20 -85 l0 -85 40 0 c33 0 40 -3 40 -20 0 -18 -7 -20 -60 -20
l-60 0 0 40 c0 33 -3 40 -20 40 -19 0 -20 7 -20 125 l0 125 40 0 c33 0 40 -3
40 -20z m-1040 -40 c0 -13 7 -20 20 -20 13 0 20 7 20 20 0 17 7 20 40 20 33 0
40 -3 40 -20 0 -13 7 -20 20 -20 13 0 20 -7 20 -20 0 -15 7 -20 25 -20 25 0
25 -1 25 -85 0 -84 0 -85 -25 -85 -18 0 -25 -5 -25 -20 0 -18 -7 -20 -80 -20
l-80 0 0 -65 c0 -58 -2 -65 -20 -65 -15 0 -20 7 -20 25 0 20 -5 25 -25 25
l-25 0 0 165 0 165 25 0 c18 0 25 5 25 20 0 13 7 20 20 20 13 0 20 -7 20 -20z
m290 0 c0 -17 7 -20 40 -20 33 0 40 3 40 20 0 17 7 20 45 20 38 0 45 -3 45
-20 0 -13 7 -20 20 -20 13 0 20 -7 20 -20 0 -13 7 -20 20 -20 18 0 20 -7 20
-85 0 -78 -2 -85 -20 -85 -13 0 -20 -7 -20 -20 0 -18 -7 -20 -85 -20 l-85 0 0
-65 0 -65 -40 0 -40 0 0 210 c0 203 1 210 20 210 13 0 20 -7 20 -20z m1040 0
c0 -17 7 -20 40 -20 l40 0 0 -105 c0 -98 -1 -105 -20 -105 -13 0 -20 -7 -20
-20 0 -18 -7 -20 -80 -20 -73 0 -80 2 -80 20 0 15 -7 20 -25 20 -22 0 -25 4
-25 40 0 33 -3 40 -20 40 -15 0 -20 7 -20 25 0 18 5 25 20 25 17 0 20 7 20 40
0 36 3 40 25 40 18 0 25 5 25 20 0 18 7 20 60 20 53 0 60 -2 60 -20z m210 0
c0 -13 7 -20 20 -20 13 0 20 7 20 20 0 13 7 20 20 20 17 0 20 -7 20 -40 l0
-40 -40 0 -40 0 0 -105 0 -105 -40 0 -40 0 0 125 c0 118 1 125 20 125 13 0 20
7 20 20 0 13 7 20 20 20 13 0 20 -7 20 -20z m290 0 c0 -13 7 -20 20 -20 13 0
20 -7 20 -20 0 -13 7 -20 20 -20 17 0 20 -7 20 -45 l0 -45 -100 0 c-93 0 -100
-1 -100 -20 0 -13 7 -20 20 -20 13 0 20 -7 20 -20 0 -18 7 -20 60 -20 53 0 60
-2 60 -20 0 -18 -7 -20 -80 -20 -73 0 -80 2 -80 20 0 15 -7 20 -25 20 l-25 0
0 105 0 105 45 0 c38 0 45 3 45 20 0 17 7 20 40 20 33 0 40 -3 40 -20z"/>
<path d="M1370 380 l0 -40 45 0 45 0 0 40 0 40 -45 0 -45 0 0 -40z"/>
<path d="M1750 400 c0 -13 -7 -20 -20 -20 -18 0 -20 -7 -20 -65 0 -58 2 -65
20 -65 13 0 20 -7 20 -20 0 -17 7 -20 40 -20 l40 0 0 85 c0 78 -2 85 -20 85
-13 0 -20 7 -20 20 0 13 -7 20 -20 20 -13 0 -20 -7 -20 -20z"/>
<path d="M2080 400 c0 -13 -7 -20 -20 -20 -18 0 -20 -7 -20 -85 l0 -85 65 0
65 0 0 85 c0 84 0 85 -25 85 -18 0 -25 5 -25 20 0 13 -7 20 -20 20 -13 0 -20
-7 -20 -20z"/>
<path d="M2960 400 c0 -13 -7 -20 -20 -20 -18 0 -20 -7 -20 -65 0 -58 2 -65
20 -65 13 0 20 -7 20 -20 0 -17 7 -20 40 -20 l40 0 0 40 c0 33 3 40 20 40 15
0 20 7 20 25 0 18 -5 25 -20 25 -13 0 -20 7 -20 20 0 13 -7 20 -20 20 -13 0
-20 7 -20 20 0 13 -7 20 -20 20 -13 0 -20 -7 -20 -20z"/>
<path d="M3460 380 l0 -40 40 0 40 0 0 40 0 40 -40 0 -40 0 0 -40z"/>
</g>
</svg>
