<?xml version="1.0" standalone="no"?>
<!DOCTYPE svg PUBLIC "-//W3C//DTD SVG 20010904//EN"
 "http://www.w3.org/TR/2001/REC-SVG-20010904/DTD/svg10.dtd">
<svg version="1.0" xmlns="http://www.w3.org/2000/svg"
 width="392.000000pt" height="109.000000pt" viewBox="0 0 392.000000 109.000000"
 preserveAspectRatio="xMidYMid meet">
<metadata>
Created by potrace 1.14, written by Peter Selinger 2001-2017
</metadata>
<g transform="translate(0.000000,109.000000) scale(0.100000,-0.100000)"
fill="#000000" stroke="none">
<path d="M88 1046 c-21 -22 -49 -54 -63 -69 l-25 -28 0 -406 c0 -398 0 -406
21 -427 29 -30 79 -97 79 -107 0 -5 822 -9 1855 -9 1477 0 1855 3 1855 13 1
15 62 82 90 97 20 11 20 18 20 440 0 399 -1 429 -17 434 -10 3 -42 28 -72 56
l-54 50 -1826 -1 -1826 -1 -37 -42z m744 -172 c11 -23 9 -33 -15 -76 -16 -28
-26 -52 -24 -54 2 -2 30 -9 63 -15 108 -19 126 -47 87 -131 -30 -64 -28 -134
6 -176 54 -68 55 -70 42 -113 -8 -25 -33 -62 -64 -94 l-52 -53 -173 0 c-171 0
-173 0 -203 26 -41 34 -70 82 -109 178 -27 68 -31 89 -28 149 3 62 7 77 39
120 51 72 87 90 184 91 111 1 105 -2 105 50 0 40 5 51 39 85 47 48 85 52 103
13z m1082 0 c9 -8 16 -27 17 -42 1 -15 4 -38 8 -52 8 -25 8 -25 30 13 27 43
66 50 96 17 25 -28 32 -25 42 16 10 45 35 64 61 47 9 -7 36 -23 59 -37 l43
-24 12 26 c24 47 40 39 62 -31 6 -18 7 -17 32 2 34 26 89 37 109 21 24 -20 18
-58 -12 -77 -16 -10 -34 -23 -41 -30 -18 -17 -33 -16 -59 2 -18 13 -26 13 -43
3 -16 -10 -24 -10 -41 0 -17 11 -24 11 -37 -1 -29 -24 -92 -38 -116 -25 -12 6
-24 16 -28 21 -4 7 -19 4 -41 -6 -45 -22 -85 -22 -109 0 -17 15 -19 15 -36 0
-23 -21 -31 -21 -53 -1 -14 13 -20 13 -38 2 -17 -10 -25 -10 -41 0 -17 10 -25
10 -43 -3 -12 -8 -43 -15 -69 -15 -41 0 -50 4 -59 24 -9 19 -7 30 16 64 32 49
54 56 100 31 34 -19 35 -19 47 1 8 12 24 20 39 20 17 0 32 9 43 25 19 29 29
31 50 9z m-517 -9 c26 -19 47 -78 39 -111 -6 -22 -12 -25 -49 -24 -23 1 -54
-2 -69 -5 -26 -7 -28 -5 -28 23 0 27 30 109 46 125 12 11 38 8 61 -8z m1840
-10 c21 -13 46 -32 55 -41 17 -16 19 -16 36 -1 29 26 78 32 107 13 34 -22 32
-54 -2 -67 -16 -6 -38 -20 -50 -31 -21 -20 -23 -20 -49 -3 -20 13 -32 15 -49
7 -15 -7 -26 -7 -33 0 -7 7 -19 4 -37 -8 -26 -17 -28 -17 -41 1 -17 23 -19
126 -2 143 17 17 22 16 65 -13z m-128 -19 c9 -10 9 -25 -1 -60 -7 -25 -16 -46
-20 -46 -4 0 -17 18 -28 40 -16 31 -18 45 -10 60 12 23 42 26 59 6z m-366 -17
l26 -20 29 21 c21 16 40 20 73 18 43 -3 44 -4 47 -42 4 -48 -10 -66 -36 -43
-25 23 -39 21 -47 -4 -6 -17 -13 -20 -38 -15 -20 3 -39 0 -51 -9 -11 -9 -41
-15 -68 -15 -42 0 -50 3 -60 25 -33 73 61 135 125 84z m-1163 -20 c16 -28 5
-65 -24 -84 -41 -27 -73 5 -64 66 3 22 15 29 70 38 4 0 12 -8 18 -20z m988
-241 c6 -6 12 -21 12 -34 0 -18 -7 -25 -27 -29 -94 -19 -105 -40 -42 -82 101
-67 126 -118 94 -187 -24 -49 -59 -66 -143 -66 -70 0 -92 10 -92 42 0 25 28
37 62 27 33 -9 76 3 84 25 9 25 -14 54 -74 92 -71 45 -82 59 -82 106 0 87 141
159 208 106z m-1106 -8 c17 -13 35 -49 57 -114 17 -52 31 -101 31 -108 0 -7
11 -37 25 -66 18 -39 22 -58 15 -72 -20 -37 -83 -29 -95 12 -12 38 -36 58 -69
58 -40 0 -70 -21 -85 -59 -14 -34 -42 -45 -67 -26 -17 12 -17 16 -1 82 9 38
32 116 52 173 45 136 79 166 137 120z m1308 -76 c22 -20 40 -40 40 -45 0 -4
-12 -25 -26 -46 -33 -48 -30 -120 7 -159 18 -20 21 -29 13 -42 -23 -36 -86
-26 -109 18 -8 16 -20 67 -25 112 -5 46 -12 95 -16 110 -5 22 0 33 24 58 17
16 35 30 41 30 6 0 29 -16 51 -36z m-875 -58 l43 -36 20 34 c18 30 25 34 83
41 105 12 129 9 161 -22 59 -56 75 -130 42 -199 -25 -52 -59 -74 -115 -74 -53
0 -79 -18 -79 -53 0 -28 -26 -67 -45 -67 -29 0 -43 30 -50 107 -4 43 -9 82
-12 86 -3 4 -25 -10 -49 -33 -39 -35 -49 -40 -93 -40 -56 0 -81 -17 -81 -56 0
-60 -40 -83 -76 -43 -15 17 -19 41 -22 144 -5 140 2 208 24 230 9 8 34 15 57
16 23 1 53 4 67 8 36 11 76 -3 125 -43z m1181 23 c81 -49 86 -197 9 -257 -38
-30 -136 -31 -183 -2 -81 49 -84 202 -6 251 69 42 120 45 180 8z m492 4 c31
-19 62 -72 62 -105 0 -40 -24 -58 -79 -58 -26 0 -55 -6 -65 -13 -17 -13 -17
-14 -1 -30 9 -9 31 -17 49 -17 41 0 64 -23 46 -45 -9 -10 -32 -15 -76 -15 -59
0 -67 3 -104 36 l-40 36 0 78 0 78 40 32 c64 50 113 57 168 23z m-238 -26 c0
-13 -13 -33 -32 -48 -30 -25 -32 -32 -37 -104 -6 -81 -20 -105 -55 -92 -25 10
-36 51 -36 140 0 110 11 131 75 137 60 7 85 -3 85 -33z"/>
<path d="M1411 386 c-9 -10 -9 -16 -1 -21 17 -10 37 12 24 25 -8 8 -15 6 -23
-4z"/>
<path d="M1748 370 c-23 -14 -32 -65 -18 -101 14 -32 52 -48 74 -30 20 17 29
77 15 103 -20 38 -40 46 -71 28z"/>
<path d="M2064 355 c-18 -28 -14 -85 7 -111 32 -39 89 1 89 63 0 64 -64 96
-96 48z"/>
<path d="M2956 361 c-39 -43 -12 -131 40 -131 28 0 44 27 44 75 0 20 -5 45
-10 56 -14 25 -52 24 -74 0z"/>
</g>
</svg>
