<?xml version="1.0" standalone="no"?>
<!DOCTYPE svg PUBLIC "-//W3C//DTD SVG 20010904//EN"
 "http://www.w3.org/TR/2001/REC-SVG-20010904/DTD/svg10.dtd">
<svg version="1.0" xmlns="http://www.w3.org/2000/svg"
 width="391.000000pt" height="109.000000pt" viewBox="0 0 391.000000 109.000000"
 preserveAspectRatio="xMidYMid meet">

<g transform="translate(0.000000,109.000000) scale(0.100000,-0.100000)"
fill="#000000" stroke="none">
<path d="M120 1070 c0 -17 -7 -20 -40 -20 l-40 0 0 -45 c0 -38 -3 -45 -20 -45
-20 0 -20 -7 -20 -415 0 -408 0 -415 20 -415 17 0 20 -7 20 -45 0 -38 3 -45
20 -45 13 0 20 -7 20 -20 0 -20 7 -20 1875 -20 1868 0 1875 0 1875 20 0 13 7
20 20 20 15 0 20 7 20 25 0 18 5 25 20 25 20 0 20 7 20 460 0 453 0 460 -20
460 -13 0 -20 7 -20 20 0 17 -7 20 -40 20 -33 0 -40 3 -40 20 0 20 -7 20
-1835 20 -1828 0 -1835 0 -1835 -20z m1250 -210 c0 -13 -7 -20 -20 -20 -17 0
-20 -7 -20 -40 0 -33 3 -40 20 -40 13 0 20 7 20 20 0 17 7 20 45 20 l45 0 0
-45 c0 -41 -2 -45 -25 -45 -20 0 -25 5 -25 25 0 18 -5 25 -20 25 -15 0 -20 -7
-20 -25 0 -18 -5 -25 -20 -25 -15 0 -20 7 -20 25 0 18 -5 25 -20 25 -17 0 -20
7 -20 40 0 33 3 40 20 40 13 0 20 7 20 20 0 13 7 20 20 20 13 0 20 -7 20 -20z
m290 0 c0 -15 7 -20 25 -20 18 0 25 -5 25 -20 0 -15 -7 -20 -25 -20 -23 0 -25
-4 -25 -45 0 -38 -3 -45 -20 -45 -18 0 -20 7 -20 85 0 78 2 85 20 85 13 0 20
-7 20 -20z m250 0 c0 -13 7 -20 20 -20 13 0 20 -7 20 -20 0 -13 -7 -20 -20
-20 -17 0 -20 -7 -20 -45 0 -38 -3 -45 -20 -45 -18 0 -20 7 -20 85 0 78 2 85
20 85 13 0 20 -7 20 -20z m-1410 -40 c0 -18 7 -20 60 -20 53 0 60 -2 60 -20 0
-13 7 -20 20 -20 15 0 20 -7 20 -25 0 -23 4 -25 45 -25 38 0 45 -3 45 -20 0
-17 7 -20 40 -20 33 0 40 -3 40 -20 0 -13 7 -20 20 -20 13 0 20 -7 20 -20 0
-18 7 -20 65 -20 l65 0 0 -45 0 -45 -45 0 c-38 0 -45 -3 -45 -20 0 -18 -7 -20
-60 -20 -53 0 -60 2 -60 20 0 13 -7 20 -20 20 -15 0 -20 7 -20 25 0 18 -5 25
-20 25 -15 0 -20 -7 -20 -25 0 -20 -5 -25 -25 -25 -18 0 -25 -5 -25 -20 0 -13
-7 -20 -20 -20 -13 0 -20 -7 -20 -20 0 -13 -7 -20 -20 -20 -13 0 -20 -7 -20
-20 0 -13 -7 -20 -20 -20 -13 0 -20 -7 -20 -20 0 -13 -7 -20 -20 -20 -15 0
-20 -7 -20 -25 0 -18 -5 -25 -20 -25 -13 0 -20 -7 -20 -20 0 -15 -7 -20 -25
-20 -18 0 -25 -5 -25 -20 0 -13 -7 -20 -20 -20 -13 0 -20 -7 -20 -20 0 -13 -7
-20 -20 -20 -20 0 -20 7 -20 270 l0 270 40 0 c36 0 40 3 40 25 0 20 5 25 25
25 20 0 25 -5 25 -25 0 -22 4 -25 40 -25 36 0 40 3 40 25 0 18 -5 25 -20 25
-13 0 -20 7 -20 20 0 13 -7 20 -20 20 -13 0 -20 7 -20 20 0 13 7 20 20 20 13
0 20 -7 20 -20z m1080 -20 c0 -33 -3 -40 -20 -40 -15 0 -20 -7 -20 -25 0 -18
-5 -25 -20 -25 -18 0 -20 7 -20 65 l0 65 40 0 40 0 0 -40z m250 -25 c0 -58 -2
-65 -20 -65 -18 0 -20 7 -20 65 0 58 2 65 20 65 18 0 20 -7 20 -65z m330 0 c0
-58 -2 -65 -20 -65 -17 0 -20 7 -20 45 0 38 -3 45 -20 45 -17 0 -20 -7 -20
-45 0 -38 -3 -45 -20 -45 -18 0 -20 7 -20 65 l0 65 60 0 60 0 0 -65z m170 0
c0 -58 -2 -65 -20 -65 -17 0 -20 7 -20 45 0 38 -3 45 -20 45 -17 0 -20 -7 -20
-45 0 -41 -2 -45 -25 -45 -24 0 -25 2 -25 65 l0 65 65 0 65 0 0 -65z m-920
-250 c0 -18 -5 -25 -20 -25 -15 0 -20 7 -20 25 0 18 5 25 20 25 15 0 20 -7 20
-25z m130 0 c0 -18 5 -25 20 -25 13 0 20 -7 20 -20 0 -13 -7 -20 -20 -20 -13
0 -20 7 -20 20 0 17 -7 20 -40 20 -36 0 -40 3 -40 25 0 23 4 25 40 25 36 0 40
-2 40 -25z m910 -125 l0 -150 25 0 c18 0 25 -5 25 -20 0 -17 -7 -20 -45 -20
l-45 0 0 170 c0 163 1 170 20 170 19 0 20 -7 20 -150z m-1120 60 c0 -33 -3
-40 -20 -40 -17 0 -20 -7 -20 -40 0 -33 3 -40 20 -40 17 0 20 -7 20 -45 0 -38
3 -45 20 -45 13 0 20 -7 20 -20 0 -18 7 -20 65 -20 58 0 65 -2 65 -20 0 -18
-7 -20 -65 -20 -58 0 -65 2 -65 20 0 17 -7 20 -40 20 l-40 0 0 40 c0 33 -3 40
-20 40 -18 0 -20 7 -20 65 0 58 2 65 20 65 17 0 20 7 20 40 0 33 3 40 20 40
17 0 20 -7 20 -40z m1830 -105 c0 -138 -1 -145 -20 -145 -19 0 -20 7 -20 145
0 138 1 145 20 145 19 0 20 -7 20 -145z m-1450 45 c0 -15 -7 -20 -25 -20 -18
0 -25 -5 -25 -20 0 -15 7 -20 25 -20 23 0 25 -4 25 -45 0 -38 3 -45 20 -45 13
0 20 -7 20 -20 0 -17 -7 -20 -45 -20 -38 0 -45 3 -45 20 0 13 -7 20 -20 20
-18 0 -20 7 -20 65 0 58 2 65 20 65 13 0 20 7 20 20 0 15 7 20 25 20 18 0 25
-5 25 -20z m120 0 c0 -13 7 -20 20 -20 18 0 20 -7 20 -65 0 -58 -2 -65 -20
-65 -13 0 -20 -7 -20 -20 0 -13 -7 -20 -20 -20 -13 0 -20 7 -20 20 0 13 7 20
20 20 18 0 20 7 20 65 0 58 -2 65 -20 65 -13 0 -20 7 -20 20 0 13 7 20 20 20
13 0 20 -7 20 -20z m290 -20 c0 -33 3 -40 20 -40 13 0 20 7 20 20 0 13 7 20
20 20 13 0 20 7 20 20 0 15 7 20 25 20 18 0 25 -5 25 -20 0 -15 -7 -20 -25
-20 -18 0 -25 -5 -25 -20 0 -15 7 -20 25 -20 20 0 25 -5 25 -25 0 -22 4 -25
40 -25 l40 0 0 45 c0 38 -3 45 -20 45 -13 0 -20 7 -20 20 0 17 7 20 40 20 l40
0 0 -65 c0 -58 -2 -65 -20 -65 -17 0 -20 -7 -20 -40 0 -33 3 -40 20 -40 18 0
20 -7 20 -60 0 -53 -2 -60 -20 -60 -15 0 -20 -7 -20 -25 0 -24 -2 -25 -65 -25
-63 0 -65 1 -65 25 0 18 -5 25 -20 25 -17 0 -20 7 -20 40 0 33 3 40 20 40 13
0 20 7 20 20 0 15 7 20 25 20 18 0 25 5 25 20 0 15 -7 20 -25 20 -18 0 -25 5
-25 20 0 17 -7 20 -40 20 l-40 0 0 -40 c0 -33 -3 -40 -20 -40 -18 0 -20 7 -20
85 0 78 -2 85 -20 85 -13 0 -20 7 -20 20 0 17 7 20 40 20 l40 0 0 -40z m460
20 c0 -13 -7 -20 -20 -20 -13 0 -20 -7 -20 -20 0 -13 7 -20 20 -20 17 0 20 -7
20 -45 0 -38 3 -45 20 -45 13 0 20 -7 20 -20 0 -17 -7 -20 -40 -20 l-40 0 0
40 c0 33 -3 40 -20 40 -17 0 -20 7 -20 45 0 38 3 45 20 45 13 0 20 7 20 20 0
13 7 20 20 20 13 0 20 -7 20 -20z m120 0 c0 -13 -7 -20 -20 -20 -13 0 -20 -7
-20 -20 0 -13 -7 -20 -20 -20 -13 0 -20 7 -20 20 0 13 7 20 20 20 13 0 20 7
20 20 0 13 7 20 20 20 13 0 20 -7 20 -20z m250 0 c0 -13 -7 -20 -20 -20 -18 0
-20 -7 -20 -65 0 -58 2 -65 20 -65 13 0 20 -7 20 -20 0 -13 -7 -20 -20 -20
-18 0 -20 -7 -20 -60 0 -53 -2 -60 -20 -60 -19 0 -20 7 -20 165 l0 165 40 0
c33 0 40 -3 40 -20z m130 -85 c0 -98 -1 -105 -20 -105 -18 0 -20 7 -20 85 0
78 -2 85 -20 85 -13 0 -20 7 -20 20 0 17 7 20 40 20 l40 0 0 -105z m210 85 c0
-13 -7 -20 -20 -20 -13 0 -20 7 -20 20 0 13 7 20 20 20 13 0 20 -7 20 -20z
m120 -85 l0 -105 -40 0 c-33 0 -40 3 -40 20 0 13 7 20 20 20 13 0 20 7 20 20
0 18 -7 20 -60 20 -53 0 -60 -2 -60 -20 0 -13 7 -20 20 -20 13 0 20 -7 20 -20
0 -13 -7 -20 -20 -20 -13 0 -20 7 -20 20 0 15 -7 20 -25 20 -18 0 -25 5 -25
20 0 15 7 20 25 20 20 0 25 5 25 25 0 24 3 25 60 25 53 0 60 2 60 20 0 13 -7
20 -20 20 -13 0 -20 7 -20 20 0 17 7 20 40 20 l40 0 0 -105z m90 65 c0 -33 3
-40 20 -40 15 0 20 -7 20 -25 0 -18 5 -25 20 -25 17 0 20 7 20 45 0 38 3 45
20 45 13 0 20 7 20 20 0 13 7 20 20 20 13 0 20 -7 20 -20 0 -13 -7 -20 -20
-20 -17 0 -20 -7 -20 -45 0 -38 -3 -45 -20 -45 -18 0 -20 -7 -20 -60 0 -53 -2
-60 -20 -60 -13 0 -20 -7 -20 -20 0 -13 -7 -20 -20 -20 -13 0 -20 -7 -20 -20
0 -15 -7 -20 -25 -20 -18 0 -25 5 -25 20 0 15 7 20 25 20 18 0 25 5 25 20 0
13 7 20 20 20 13 0 20 7 20 20 0 13 -7 20 -20 20 -18 0 -20 7 -20 65 0 63 -1
65 -25 65 -22 0 -25 4 -25 40 0 36 3 40 25 40 23 0 25 -4 25 -40z m-1550 -65
c0 -63 1 -65 25 -65 18 0 25 -5 25 -20 0 -15 -7 -20 -25 -20 -18 0 -25 5 -25
20 0 13 -7 20 -20 20 -18 0 -20 7 -20 65 0 58 2 65 20 65 18 0 20 -7 20 -65z
m-370 -65 c0 -33 -3 -40 -20 -40 -17 0 -20 7 -20 40 0 33 3 40 20 40 17 0 20
-7 20 -40z"/>
<path d="M540 690 c0 -13 7 -20 20 -20 13 0 20 -7 20 -20 0 -13 7 -20 20 -20
13 0 20 7 20 20 0 13 -7 20 -20 20 -13 0 -20 7 -20 20 0 13 -7 20 -20 20 -13
0 -20 -7 -20 -20z"/>
<path d="M2250 190 c0 -15 -7 -20 -25 -20 -22 0 -25 -4 -25 -40 l0 -40 65 0
65 0 0 40 c0 33 -3 40 -20 40 -13 0 -20 7 -20 20 0 13 -7 20 -20 20 -13 0 -20
-7 -20 -20z"/>
</g>
</svg>
