<?xml version="1.0" standalone="no"?>
<!DOCTYPE svg PUBLIC "-//W3C//DTD SVG 20010904//EN"
 "http://www.w3.org/TR/2001/REC-SVG-20010904/DTD/svg10.dtd">
<svg version="1.0" xmlns="http://www.w3.org/2000/svg"
 width="392.000000pt" height="109.000000pt" viewBox="0 0 392.000000 109.000000"
 preserveAspectRatio="xMidYMid meet">

<g transform="translate(0.000000,109.000000) scale(0.100000,-0.100000)"
fill="#000000" stroke="none">
<path d="M130 1070 c0 -17 -7 -20 -45 -20 l-45 0 0 -45 c0 -38 -3 -45 -20 -45
-20 0 -20 -7 -20 -415 0 -408 0 -415 20 -415 17 0 20 -7 20 -45 0 -41 2 -45
25 -45 18 0 25 -5 25 -20 0 -20 7 -20 1875 -20 1868 0 1875 0 1875 20 0 13 7
20 20 20 15 0 20 7 20 25 0 18 5 25 20 25 20 0 20 7 20 460 0 453 0 460 -20
460 -13 0 -20 7 -20 20 0 17 -7 20 -45 20 -38 0 -45 3 -45 20 0 20 -7 20
-1830 20 -1823 0 -1830 0 -1830 -20z m460 -210 c0 -15 -7 -20 -25 -20 -18 0
-25 -5 -25 -20 0 -13 -7 -20 -20 -20 -13 0 -20 7 -20 20 0 13 7 20 20 20 13 0
20 7 20 20 0 15 7 20 25 20 18 0 25 -5 25 -20z m80 0 c0 -13 -7 -20 -20 -20
-13 0 -20 7 -20 20 0 13 7 20 20 20 13 0 20 -7 20 -20z m670 -40 c0 -15 -7
-20 -25 -20 -25 0 -25 -1 -25 -85 0 -78 -2 -85 -20 -85 -18 0 -20 7 -20 85 0
78 2 85 20 85 13 0 20 7 20 20 0 15 7 20 25 20 18 0 25 -5 25 -20z m80 -65 c0
-38 3 -45 20 -45 13 0 20 -7 20 -20 0 -13 7 -20 20 -20 13 0 20 -7 20 -20 0
-13 -7 -20 -20 -20 -13 0 -20 7 -20 20 0 17 -7 20 -40 20 -33 0 -40 -3 -40
-20 0 -13 -7 -20 -20 -20 -13 0 -20 7 -20 20 0 13 7 20 20 20 18 0 20 7 20 65
0 58 2 65 20 65 17 0 20 -7 20 -45z m580 25 c0 -13 -7 -20 -20 -20 -13 0 -20
7 -20 20 0 13 7 20 20 20 13 0 20 -7 20 -20z m590 -25 c0 -41 -2 -45 -25 -45
-23 0 -25 4 -25 45 0 41 2 45 25 45 23 0 25 -4 25 -45z m-1710 -20 c0 -22 4
-25 40 -25 l40 0 0 -270 c0 -263 0 -270 -20 -270 -13 0 -20 -7 -20 -20 0 -17
-7 -20 -40 -20 -33 0 -40 3 -40 20 0 19 -7 20 -105 20 -98 0 -105 1 -105 20 0
19 -7 20 -105 20 -98 0 -105 1 -105 20 0 17 -7 20 -40 20 l-40 0 0 190 0 190
40 0 c33 0 40 3 40 20 0 19 7 20 105 20 98 0 105 1 105 20 0 19 7 20 105 20
l105 0 0 25 c0 18 5 25 20 25 15 0 20 -7 20 -25z m830 0 c0 -18 5 -25 20 -25
17 0 20 -7 20 -40 0 -33 -3 -40 -20 -40 -17 0 -20 7 -20 40 0 33 -3 40 -20 40
-17 0 -20 -7 -20 -40 0 -33 -3 -40 -20 -40 -17 0 -20 7 -20 40 0 33 3 40 20
40 15 0 20 7 20 25 0 18 5 25 20 25 15 0 20 -7 20 -25z m130 0 c0 -20 -5 -25
-25 -25 -20 0 -25 5 -25 25 0 20 5 25 25 25 20 0 25 -5 25 -25z m80 0 c0 -18
-5 -25 -20 -25 -15 0 -20 7 -20 25 0 18 5 25 20 25 15 0 20 -7 20 -25z m370 0
c0 -20 5 -25 25 -25 18 0 25 -5 25 -20 0 -17 7 -20 40 -20 33 0 40 -3 40 -20
0 -17 -7 -20 -40 -20 -33 0 -40 3 -40 20 0 15 -7 20 -25 20 -18 0 -25 -5 -25
-20 0 -13 -7 -20 -20 -20 -18 0 -20 7 -20 65 0 58 2 65 20 65 15 0 20 -7 20
-25z m380 0 c0 -18 -5 -25 -20 -25 -15 0 -20 7 -20 25 0 18 5 25 20 25 15 0
20 -7 20 -25z m80 -40 c0 -58 -2 -65 -20 -65 -18 0 -20 7 -20 65 0 58 2 65 20
65 18 0 20 -7 20 -65z m90 40 c0 -20 -5 -25 -25 -25 -20 0 -25 5 -25 25 0 20
5 25 25 25 20 0 25 -5 25 -25z m80 0 c0 -18 -5 -25 -20 -25 -15 0 -20 7 -20
25 0 18 5 25 20 25 15 0 20 -7 20 -25z m80 -20 c0 -38 -3 -45 -20 -45 -17 0
-20 7 -20 45 0 38 3 45 20 45 17 0 20 -7 20 -45z m90 -20 c0 -63 -1 -65 -25
-65 -24 0 -25 2 -25 65 0 63 1 65 25 65 24 0 25 -2 25 -65z m-1500 -5 c0 -15
-7 -20 -25 -20 -18 0 -25 5 -25 20 0 15 7 20 25 20 18 0 25 -5 25 -20z m450 0
c0 -15 7 -20 25 -20 18 0 25 -5 25 -20 0 -15 -7 -20 -25 -20 -18 0 -25 5 -25
20 0 13 -7 20 -20 20 -13 0 -20 7 -20 20 0 13 7 20 20 20 13 0 20 -7 20 -20z
m130 0 c0 -13 7 -20 20 -20 13 0 20 -7 20 -20 0 -13 -7 -20 -20 -20 -13 0 -20
7 -20 20 0 13 -7 20 -20 20 -13 0 -20 7 -20 20 0 13 7 20 20 20 13 0 20 -7 20
-20z m670 -40 c0 -15 -7 -20 -25 -20 -18 0 -25 5 -25 20 0 15 7 20 25 20 18 0
25 -5 25 -20z m-1550 -210 c0 -57 1 -60 25 -60 23 0 25 -4 25 -45 0 -38 3 -45
20 -45 17 0 20 -7 20 -40 0 -33 -3 -40 -20 -40 -13 0 -20 7 -20 20 0 15 -7 20
-25 20 -24 0 -25 2 -25 65 0 58 -2 65 -20 65 -18 0 -20 7 -20 60 0 53 2 60 20
60 18 0 20 -7 20 -60z m170 0 c0 -53 2 -60 20 -60 17 0 20 -7 20 -45 0 -38 3
-45 20 -45 17 0 20 -7 20 -40 0 -33 -3 -40 -20 -40 -13 0 -20 7 -20 20 0 13
-7 20 -20 20 -18 0 -20 7 -20 65 0 58 -2 65 -20 65 -13 0 -20 -7 -20 -20 0
-13 -7 -20 -20 -20 -18 0 -20 7 -20 60 0 53 2 60 20 60 13 0 20 7 20 20 0 13
7 20 20 20 18 0 20 -7 20 -60z m210 40 c0 -17 -7 -20 -40 -20 l-40 0 0 -60 c0
-57 -1 -60 -25 -60 -24 0 -25 3 -25 60 0 57 1 60 25 60 18 0 25 5 25 20 0 17
7 20 40 20 33 0 40 -3 40 -20z m460 -125 l0 -145 -85 0 c-78 0 -85 2 -85 20 0
13 -7 20 -20 20 -18 0 -20 7 -20 65 0 58 2 65 20 65 13 0 20 7 20 20 0 18 7
20 65 20 l65 0 0 40 c0 33 3 40 20 40 19 0 20 -7 20 -145z m910 125 c0 -17 -7
-20 -40 -20 l-40 0 0 -40 0 -40 40 0 c33 0 40 -3 40 -20 0 -15 7 -20 25 -20
23 0 25 -4 25 -45 0 -41 -2 -45 -25 -45 -18 0 -25 -5 -25 -20 0 -18 -7 -20
-60 -20 -53 0 -60 2 -60 20 0 18 7 20 60 20 53 0 60 2 60 20 0 13 -7 20 -20
20 -15 0 -20 7 -20 25 0 18 -5 25 -20 25 -13 0 -20 7 -20 20 0 13 -7 20 -20
20 -17 0 -20 7 -20 40 0 33 3 40 20 40 13 0 20 7 20 20 0 17 7 20 40 20 33 0
40 -3 40 -20z m130 -40 c0 -13 7 -20 20 -20 13 0 20 -7 20 -20 0 -13 -7 -20
-20 -20 -18 0 -20 -7 -20 -65 0 -58 2 -65 20 -65 13 0 20 -7 20 -20 0 -17 -7
-20 -40 -20 l-40 0 0 85 c0 78 -2 85 -20 85 -13 0 -20 7 -20 20 0 13 7 20 20
20 13 0 20 7 20 20 0 13 7 20 20 20 13 0 20 -7 20 -20z m-1500 -125 c0 -98 -1
-105 -20 -105 -19 0 -20 7 -20 105 0 98 1 105 20 105 19 0 20 -7 20 -105z
m210 20 c0 -78 -2 -85 -20 -85 -18 0 -20 7 -20 65 l0 65 -45 0 -45 0 0 -85 c0
-78 -2 -85 -20 -85 -19 0 -20 7 -20 105 l0 105 85 0 85 0 0 -85z m460 45 c0
-36 -2 -40 -25 -40 -18 0 -25 5 -25 20 0 17 -7 20 -40 20 l-40 0 0 -65 0 -65
40 0 c33 0 40 3 40 20 0 15 7 20 25 20 23 0 25 -4 25 -40 l0 -40 -85 0 -85 0
0 105 0 105 85 0 85 0 0 -40z m80 -25 c0 -58 2 -65 20 -65 17 0 20 7 20 45 0
38 3 45 20 45 13 0 20 7 20 20 0 13 7 20 20 20 17 0 20 -7 20 -40 0 -33 -3
-40 -20 -40 -15 0 -20 -7 -20 -25 0 -18 -5 -25 -20 -25 -17 0 -20 -7 -20 -40
0 -33 -3 -40 -20 -40 -17 0 -20 7 -20 40 0 33 -3 40 -20 40 -18 0 -20 7 -20
65 0 58 2 65 20 65 18 0 20 -7 20 -65z m330 45 c0 -13 -7 -20 -20 -20 -13 0
-20 -7 -20 -20 0 -13 7 -20 20 -20 15 0 20 -7 20 -25 0 -18 5 -25 20 -25 17 0
20 -7 20 -40 l0 -40 -60 0 c-53 0 -60 2 -60 20 0 17 7 20 40 20 33 0 40 3 40
20 0 13 -7 20 -20 20 -15 0 -20 7 -20 25 0 18 -5 25 -20 25 -17 0 -20 7 -20
40 l0 40 40 0 c33 0 40 -3 40 -20z m670 -20 c0 -33 3 -40 20 -40 17 0 20 7 20
40 l0 40 40 0 c33 0 40 -3 40 -20 0 -13 -7 -20 -20 -20 -18 0 -20 -7 -20 -85
0 -78 -2 -85 -20 -85 -17 0 -20 7 -20 40 0 33 -3 40 -20 40 -17 0 -20 -7 -20
-40 l0 -40 -85 0 -85 0 0 105 0 105 85 0 85 0 0 -40z m330 20 c0 -13 7 -20 20
-20 13 0 20 -7 20 -20 0 -13 -7 -20 -20 -20 -15 0 -20 -7 -20 -25 0 -24 -3
-25 -60 -25 -53 0 -60 -2 -60 -20 0 -18 7 -20 60 -20 53 0 60 -2 60 -20 0 -18
-7 -20 -60 -20 -53 0 -60 2 -60 20 0 13 -7 20 -20 20 -18 0 -20 7 -20 65 0 58
2 65 20 65 13 0 20 7 20 20 0 18 7 20 60 20 53 0 60 -2 60 -20z m-1120 -85 c0
-58 -2 -65 -20 -65 -13 0 -20 -7 -20 -20 0 -15 -7 -20 -25 -20 -22 0 -25 4
-25 40 0 36 3 40 25 40 23 0 25 4 25 45 0 38 3 45 20 45 18 0 20 -7 20 -65z"/>
<path d="M630 570 c0 -18 -7 -20 -85 -20 l-85 0 0 -105 0 -105 105 0 105 0 0
-25 c0 -18 5 -25 20 -25 15 0 20 7 20 25 0 18 5 25 20 25 17 0 20 7 20 40 0
33 -3 40 -20 40 -13 0 -20 7 -20 20 0 13 7 20 20 20 18 0 20 7 20 65 l0 65
-60 0 c-53 0 -60 -2 -60 -20z m0 -130 c0 -13 -7 -20 -20 -20 -13 0 -20 7 -20
20 0 13 7 20 20 20 13 0 20 -7 20 -20z"/>
<path d="M1960 315 l0 -65 65 0 65 0 0 65 0 65 -65 0 -65 0 0 -65z"/>
<path d="M3290 315 l0 -65 45 0 c38 0 45 3 45 20 0 13 7 20 20 20 15 0 20 7
20 25 0 18 -5 25 -20 25 -13 0 -20 7 -20 20 0 17 -7 20 -45 20 l-45 0 0 -65z"/>
<path d="M3670 360 c0 -13 7 -20 20 -20 13 0 20 7 20 20 0 13 -7 20 -20 20
-13 0 -20 -7 -20 -20z"/>
</g>
</svg>
