<?xml version="1.0" encoding="UTF-8"?>
<svg xmlns="http://www.w3.org/2000/svg" xmlns:xlink="http://www.w3.org/1999/xlink" viewBox="0 0 18 18" width="18px" height="18px">
<g id="surface3611853">
<path style=" stroke:none;fill-rule:nonzero;fill:rgb(0%,0%,0%);fill-opacity:1;" d="M 3.882812 0.226562 C 1.871094 0.226562 0.226562 1.871094 0.226562 3.882812 L 0.226562 14.117188 C 0.226562 16.128906 1.871094 17.773438 3.882812 17.773438 L 14.117188 17.773438 C 16.128906 17.773438 17.773438 16.128906 17.773438 14.117188 L 17.773438 3.882812 C 17.773438 1.871094 16.128906 0.226562 14.117188 0.226562 Z M 3.882812 1.6875 L 14.117188 1.6875 C 15.339844 1.6875 16.3125 2.660156 16.3125 3.882812 L 16.3125 6.074219 L 12.21875 6.074219 C 11.414062 5.191406 10.28125 4.613281 9 4.613281 C 7.71875 4.613281 6.585938 5.191406 5.78125 6.074219 L 1.6875 6.074219 L 1.6875 3.882812 C 1.6875 2.660156 2.660156 1.6875 3.882812 1.6875 Z M 12.65625 3.148438 C 12.390625 3.144531 12.148438 3.285156 12.015625 3.511719 C 11.882812 3.742188 11.882812 4.023438 12.015625 4.25 C 12.148438 4.476562 12.390625 4.617188 12.65625 4.613281 L 14.117188 4.613281 C 14.382812 4.617188 14.628906 4.476562 14.761719 4.25 C 14.894531 4.023438 14.894531 3.742188 14.761719 3.511719 C 14.628906 3.285156 14.382812 3.144531 14.117188 3.148438 Z M 9 6.074219 C 10.625 6.074219 11.925781 7.375 11.925781 9 C 11.925781 10.625 10.625 11.925781 9 11.925781 C 7.375 11.925781 6.074219 10.625 6.074219 9 C 6.074219 7.375 7.375 6.074219 9 6.074219 Z M 1.6875 7.539062 L 4.910156 7.539062 C 4.742188 8 4.613281 8.480469 4.613281 9 C 4.613281 11.414062 6.585938 13.386719 9 13.386719 C 11.414062 13.386719 13.386719 11.414062 13.386719 9 C 13.386719 8.480469 13.257812 8 13.089844 7.539062 L 16.3125 7.539062 L 16.3125 14.117188 C 16.3125 15.339844 15.339844 16.3125 14.117188 16.3125 L 3.882812 16.3125 C 2.660156 16.3125 1.6875 15.339844 1.6875 14.117188 Z M 1.6875 7.539062 "/>
</g>
</svg>
