<?xml version="1.0" encoding="UTF-8"?>
<svg xmlns="http://www.w3.org/2000/svg" xmlns:xlink="http://www.w3.org/1999/xlink" viewBox="0 0 15 15" width="15px" height="15px">
<g id="surface3603759">
<path style=" stroke:none;fill-rule:nonzero;fill:rgb(0%,0%,0%);fill-opacity:1;" d="M 2.320312 0.796875 C 1.488281 0.796875 0.796875 1.488281 0.796875 2.320312 L 0.796875 12.679688 C 0.796875 13.511719 1.488281 14.203125 2.320312 14.203125 L 12.679688 14.203125 C 13.511719 14.203125 14.203125 13.511719 14.203125 12.679688 L 14.203125 2.320312 C 14.203125 1.488281 13.511719 0.796875 12.679688 0.796875 Z M 2.320312 2.015625 L 12.679688 2.015625 C 12.851562 2.015625 12.984375 2.148438 12.984375 2.320312 L 12.984375 12.679688 C 12.984375 12.851562 12.851562 12.984375 12.679688 12.984375 L 2.320312 12.984375 C 2.148438 12.984375 2.015625 12.851562 2.015625 12.679688 L 2.015625 2.320312 C 2.015625 2.148438 2.148438 2.015625 2.320312 2.015625 Z M 4.109375 3.0625 C 3.53125 3.0625 3.0625 3.53125 3.0625 4.109375 C 3.0625 4.6875 3.53125 5.15625 4.109375 5.15625 C 4.6875 5.15625 5.15625 4.6875 5.15625 4.109375 C 5.15625 3.53125 4.6875 3.0625 4.109375 3.0625 Z M 9.613281 5.84375 C 8.738281 5.84375 8.160156 6.320312 7.917969 6.777344 L 7.878906 6.777344 L 7.878906 5.976562 L 6.167969 5.976562 L 6.167969 11.765625 L 7.957031 11.765625 L 7.957031 8.910156 C 7.957031 8.15625 8.105469 7.425781 9.042969 7.425781 C 9.964844 7.425781 9.976562 8.277344 9.976562 8.949219 L 9.976562 11.765625 L 11.765625 11.765625 L 11.765625 8.585938 C 11.765625 7.027344 11.433594 5.84375 9.613281 5.84375 Z M 3.234375 5.976562 L 3.234375 11.765625 L 5.042969 11.765625 L 5.042969 5.976562 Z M 3.234375 5.976562 "/>
</g>
</svg>
