<?xml version="1.0" encoding="UTF-8"?>
<svg xmlns="http://www.w3.org/2000/svg" xmlns:xlink="http://www.w3.org/1999/xlink" viewBox="0 0 20 20" width="20px" height="20px">
<g id="surface3515184">
<path style=" stroke:none;fill-rule:nonzero;fill:rgb(0%,0%,0%);fill-opacity:1;" d="M 19.5 2.398438 C 18.757812 2.839844 17.273438 3.4375 16.398438 3.609375 C 16.371094 3.617188 16.351562 3.625 16.328125 3.632812 C 15.554688 2.871094 14.496094 2.398438 13.324219 2.398438 C 10.964844 2.398438 9.050781 4.3125 9.050781 6.675781 C 9.050781 6.796875 9.039062 7.027344 9.050781 7.148438 C 5.863281 7.148438 3.441406 5.480469 1.703125 3.347656 C 1.511719 3.824219 1.429688 4.574219 1.429688 5.28125 C 1.429688 6.609375 2.46875 7.917969 4.089844 8.726562 C 3.792969 8.804688 3.464844 8.859375 3.121094 8.859375 C 2.570312 8.859375 1.984375 8.714844 1.449219 8.273438 C 1.449219 8.289062 1.449219 8.304688 1.449219 8.324219 C 1.449219 10.183594 3.425781 11.449219 5.179688 11.800781 C 4.824219 12.011719 4.105469 12.03125 3.753906 12.03125 C 3.507812 12.03125 2.632812 11.917969 2.398438 11.875 C 2.886719 13.398438 4.648438 14.257812 6.328125 14.289062 C 5.015625 15.316406 4.105469 15.699219 1.414062 15.699219 L 0.5 15.699219 C 2.199219 16.789062 4.363281 17.601562 6.53125 17.601562 C 13.589844 17.601562 17.601562 12.21875 17.601562 7.148438 C 17.601562 7.066406 17.597656 6.894531 17.59375 6.722656 C 17.59375 6.707031 17.601562 6.691406 17.601562 6.675781 C 17.601562 6.648438 17.59375 6.625 17.59375 6.597656 C 17.589844 6.46875 17.585938 6.347656 17.582031 6.285156 C 18.335938 5.742188 18.984375 5.070312 19.5 4.300781 C 18.8125 4.605469 18.070312 4.808594 17.296875 4.902344 C 18.089844 4.429688 19.214844 3.296875 19.5 2.398438 Z M 19.5 2.398438 "/>
</g>
</svg>
